HIERARCHY
ROOT Hips
{
	OFFSET 0.000000 0.000000 0.000000
	CHANNELS 6 Xposition Yposition Zposition Zrotation Yrotation Xrotation 
	JOINT LHipJoint
	{
		OFFSET 0.000000 0.000000 0.000000
		CHANNELS 3 Zrotation Yrotation Xrotation
		JOINT LeftUpLeg
		{
			OFFSET 1.363060 -1.794630 0.839290
			CHANNELS 3 Zrotation Yrotation Xrotation
			JOINT LeftLeg
			{
				OFFSET 2.448110 -6.726130 0.000000
				CHANNELS 3 Zrotation Yrotation Xrotation
				JOINT LeftFoot
				{
					OFFSET 2.562200 -7.039590 0.000000
					CHANNELS 3 Zrotation Yrotation Xrotation
					JOINT LeftToeBase
					{
						OFFSET 0.157640 -0.433110 2.322550
						CHANNELS 3 Zrotation Yrotation Xrotation
						End Site
						{
							OFFSET 0.000000 0.000000 0.000000
						}
					}
				}
			}
		}
	}
	JOINT RHipJoint
	{
		OFFSET 0.000000 0.000000 0.000000
		CHANNELS 3 Zrotation Yrotation Xrotation
		JOINT RightUpLeg
		{
			OFFSET -1.305520 -1.794630 0.839290
			CHANNELS 3 Zrotation Yrotation Xrotation
			JOINT RightLeg
			{
				OFFSET -2.542530 -6.985550 0.000000
				CHANNELS 3 Zrotation Yrotation Xrotation
				JOINT RightFoot
				{
					OFFSET -2.568260 -7.056230 0.000000
					CHANNELS 3 Zrotation Yrotation Xrotation
					JOINT RightToeBase
					{
						OFFSET -0.164730 -0.452590 2.363150
						CHANNELS 3 Zrotation Yrotation Xrotation
						End Site
						{
							OFFSET 0.000000 0.000000 0.000000
						}
					}
				}
			}
		}
	}
	JOINT LowerBack
	{
		OFFSET 0.000000 0.000000 0.000000
		CHANNELS 3 Zrotation Yrotation Xrotation
		JOINT Spine
		{
			OFFSET 0.028270 2.035590 -0.193380
			CHANNELS 3 Zrotation Yrotation Xrotation
			JOINT Spine1
			{
				OFFSET 0.056720 2.048850 -0.042750
				CHANNELS 3 Zrotation Yrotation Xrotation
				JOINT Neck
				{
					OFFSET 0.000000 0.000000 0.000000
					CHANNELS 3 Zrotation Yrotation Xrotation
					JOINT Neck1
					{
						OFFSET -0.054170 1.746240 0.172020
						CHANNELS 3 Zrotation Yrotation Xrotation
						JOINT Head
						{
							OFFSET 0.104070 1.761360 -0.123970
							CHANNELS 3 Zrotation Yrotation Xrotation
							End Site
							{
								OFFSET 0.000000 0.000000 0.000000
							}
						}
					}
				}
				JOINT LeftShoulder
				{
					OFFSET 0.000000 0.000000 0.000000
					CHANNELS 3 Zrotation Yrotation Xrotation
					JOINT LeftArm
					{
						OFFSET 3.362410 1.200890 -0.311210
						CHANNELS 3 Zrotation Yrotation Xrotation
						JOINT LeftForeArm
						{
							OFFSET 4.983000 -0.000000 -0.000000
							CHANNELS 3 Zrotation Yrotation Xrotation
							JOINT LeftHand
							{
								OFFSET 3.483560 -0.000000 -0.000000
								CHANNELS 3 Zrotation Yrotation Xrotation
								JOINT LeftFingerBase
								{
									OFFSET 0.000000 0.000000 0.000000
									CHANNELS 3 Zrotation Yrotation Xrotation
									JOINT LeftHandIndex1
									{
										OFFSET 0.715260 -0.000000 -0.000000
										CHANNELS 3 Zrotation Yrotation Xrotation
										End Site
										{
											OFFSET 0.000000 0.000000 0.000000
										}
									}
								}
								JOINT LThumb
								{
									OFFSET 0.000000 0.000000 0.000000
									CHANNELS 3 Zrotation Yrotation Xrotation
									End Site
									{
										OFFSET 0.000000 0.000000 0.000000
									}
								}
							}
						}
					}
				}
				JOINT RightShoulder
				{
					OFFSET 0.000000 0.000000 0.000000
					CHANNELS 3 Zrotation Yrotation Xrotation
					JOINT RightArm
					{
						OFFSET -3.136600 1.374050 -0.404650
						CHANNELS 3 Zrotation Yrotation Xrotation
						JOINT RightForeArm
						{
							OFFSET -5.241900 -0.000000 -0.000000
							CHANNELS 3 Zrotation Yrotation Xrotation
							JOINT RightHand
							{
								OFFSET -3.444170 -0.000000 -0.000000
								CHANNELS 3 Zrotation Yrotation Xrotation
								JOINT RightFingerBase
								{
									OFFSET 0.000000 0.000000 0.000000
									CHANNELS 3 Zrotation Yrotation Xrotation
									JOINT RightHandIndex1
									{
										OFFSET -0.622530 -0.000000 -0.000000
										CHANNELS 3 Zrotation Yrotation Xrotation
										End Site
										{
											OFFSET 0.000000 0.000000 0.000000
										}
									}
								}
								JOINT RThumb
								{
									OFFSET 0.000000 0.000000 0.000000
									CHANNELS 3 Zrotation Yrotation Xrotation
									End Site
									{
										OFFSET 0.000000 0.000000 0.000000
									}
								}
							}
						}
					}
				}
			}
		}
	}
}
MOTION
Frames: 4
Frame Time: 0.008333
10.252566 17.486561 -6.864767 2.866818 3.230852 4.317454 2.805623 3.596101 0.851548 -27.188581 5.052831 11.287740 -1.158259 -0.456545 3.254176 0.823429 -9.101036 -9.700808 1.842292 -8.528995 -24.333101 -5.553763 -3.391025 0.695240 23.515675 6.033282 -37.647693 -0.532711 -7.691117 20.178379 -0.989588 4.746002 -12.188651 -0.007246 -0.424435 1.166487 -2.653807 -4.157127 2.726994 1.589866 -5.663027 -3.716633 0.845344 -2.661890 -3.310291 8.335095 8.767568 -3.054596 0.010911 11.345124 5.828269 -9.441413 5.486082 2.215109 -5.987036 -6.633024 2.074515 -75.185745 -1.270456 37.273863 21.236877 -27.068510 -6.354575 -0.198865 -2.015869 -8.662430 15.590827 28.998024 8.408984 -7.125000 0.000000 0.000000 -18.285625 61.005542 -7.345628 12.422960 7.134415 1.682703 76.352787 -10.810931 16.249217 -10.933634 13.790598 -2.065190 -1.065232 -0.623857 19.771434 -16.466537 18.109076 -5.269008 7.125000 0.000000 0.000000 8.139905 -10.281810 6.624736
10.248047 17.475356 -6.784376 2.844862 3.301817 4.291196 2.807105 3.606878 0.860395 -27.093666 5.039891 11.619208 -1.160717 -0.460451 3.260231 0.833159 -9.001108 -9.834757 1.938511 -8.732123 -24.964073 -5.560629 -3.398568 0.685363 23.662913 5.913873 -37.610058 -0.507797 -7.619198 19.982623 -0.980187 4.686315 -12.134247 -0.001300 -0.104138 0.286073 -2.673093 -4.159494 2.785916 1.612040 -5.667577 -3.709142 0.966678 -2.659898 -3.290738 8.278508 8.777674 -3.093241 -0.030541 11.361539 5.767441 -9.455662 5.478540 2.197706 -5.977845 -6.642803 2.078441 -75.271765 -1.364972 37.347898 21.338735 -27.179576 -6.408166 -0.194218 -2.007868 -8.893698 15.757530 28.712573 8.414355 -7.125000 0.000000 0.000000 -17.917119 60.757683 -7.124753 12.440764 7.131190 1.687645 76.295859 -10.776210 15.992983 -10.885501 13.721040 -2.044806 -1.068417 -0.616005 19.929118 -16.260722 18.000313 -5.165224 7.125000 0.000000 0.000000 8.271123 -10.422674 6.710402
10.242560 17.464998 -6.704179 2.822193 3.389993 4.260207 2.806006 3.617865 0.870084 -26.987008 5.013703 11.967378 -1.164023 -0.463803 3.267139 0.848661 -8.898678 -10.021241 2.078751 -9.024338 -25.874221 -5.570691 -3.405582 0.673829 23.765358 5.864338 -37.500153 -0.482145 -7.548604 19.797032 -0.963045 4.511708 -12.108920 -0.001300 0.131003 -0.360011 -2.726824 -4.165424 2.851688 1.643075 -5.678101 -3.697962 1.147396 -2.658932 -3.249629 8.187441 8.787464 -3.149405 -0.069062 11.378452 5.706878 -9.462970 5.470100 2.181443 -5.972224 -6.650052 2.079240 -75.390489 -1.434260 37.864620 21.370815 -27.195786 -6.396029 -0.220389 -1.935328 -10.717939 17.739166 26.685592 8.949225 -7.125000 0.000000 0.000000 -14.214099 59.201038 -5.090055 12.467795 7.125267 1.696907 76.197805 -10.691899 15.653514 -10.811172 13.618878 -2.020293 -1.075476 -0.611190 20.190918 -16.079313 17.973303 -5.093740 7.125000 0.000000 0.000000 8.390572 -10.470691 6.801237
10.235692 17.454430 -6.624372 2.797103 3.484541 4.256056 2.807001 3.627334 0.878987 -26.872563 4.967234 12.288628 -1.165352 -0.467540 3.272136 0.856997 -8.841226 -10.123573 2.156903 -9.185205 -26.376681 -5.585280 -3.411129 0.669904 23.768061 6.028286 -37.319412 -0.455299 -7.495096 19.660965 -0.916598 4.014568 -12.101703 -0.004313 0.366806 -1.007994 -2.778097 -4.171105 2.901886 1.673997 -5.690331 -3.696208 1.332236 -2.656323 -3.243233 8.072675 8.791118 -3.180346 -0.081533 11.379320 5.666628 -9.451359 5.460093 2.163704 -5.965033 -6.658219 2.076980 -75.518065 -1.441021 38.343137 21.453356 -27.273893 -6.420306 -0.242922 -1.876533 -12.306858 19.429314 25.052332 9.339492 -7.125000 0.000000 0.000000 -11.300909 57.910884 -3.653741 12.490364 7.118484 1.703416 76.096039 -10.629095 15.341762 -10.723063 13.501818 -1.996916 -1.084582 -0.612553 20.488983 -15.991383 18.040710 -5.081392 7.125000 0.000000 0.000000 8.452090 -10.403658 6.863964
